<svg width="18" height="10" viewBox="0 0 18 10" fill="none" xmlns="http://www.w3.org/2000/svg">
<path d="M8.99999 10C3.89999 10 0.456238 5.38125 0.309363 5.18437C0.270254 5.13086 0.249176 5.06629 0.249176 5C0.249176 4.93371 0.270254 4.86914 0.309363 4.81563C0.456238 4.61875 3.89999 0 8.99999 0C14.1 0 17.5437 4.61875 17.6906 4.81563C17.7297 4.86914 17.7508 4.93371 17.7508 5C17.7508 5.06629 17.7297 5.13086 17.6906 5.18437C17.5437 5.38125 14.1 10 8.99999 10ZM0.959362 5C1.65624 5.85313 4.78124 9.375 8.99999 9.375C13.2187 9.375 16.3437 5.85625 17.0406 5C16.3437 4.14687 13.2187 0.625 8.99999 0.625C4.78124 0.625 1.65624 4.14375 0.959362 5ZM8.99999 8.75C8.25831 8.75 7.53328 8.53007 6.9166 8.11801C6.29991 7.70596 5.81927 7.12029 5.53544 6.43506C5.25161 5.74984 5.17735 4.99584 5.32204 4.26841C5.46674 3.54098 5.82389 2.8728 6.34834 2.34835C6.87278 1.8239 7.54097 1.46675 8.2684 1.32206C8.99583 1.17736 9.74983 1.25162 10.4351 1.53545C11.1203 1.81928 11.7059 2.29993 12.118 2.91661C12.5301 3.5333 12.75 4.25832 12.75 5C12.75 5.99456 12.3549 6.94839 11.6516 7.65165C10.9484 8.35491 9.99455 8.75 8.99999 8.75ZM8.99999 1.875C8.38192 1.875 7.77773 2.05828 7.26383 2.40166C6.74993 2.74504 6.34939 3.2331 6.11286 3.80411C5.87634 4.37513 5.81445 5.00347 5.93503 5.60966C6.05561 6.21585 6.35324 6.77267 6.79028 7.20971C7.22732 7.64675 7.78414 7.94438 8.39033 8.06495C8.99652 8.18553 9.62485 8.12365 10.1959 7.88712C10.7669 7.6506 11.255 7.25006 11.5983 6.73616C11.9417 6.22225 12.125 5.61807 12.125 5C12.125 4.1712 11.7957 3.37634 11.2097 2.79029C10.6236 2.20424 9.82879 1.875 8.99999 1.875Z" fill="#5F6B8A"/>
</svg>
