<svg width="18" height="19" viewBox="0 0 18 19" fill="none" xmlns="http://www.w3.org/2000/svg">
<path d="M11.842 2.97042C11.717 2.92493 11.579 2.93097 11.4584 2.98722C11.3378 3.04346 11.2445 3.14531 11.199 3.27034C11.1535 3.39538 11.1596 3.53337 11.2158 3.65395C11.2721 3.77453 11.3739 3.86783 11.499 3.91333C13.09 4.49124 14.4264 5.61137 15.2735 7.07689C16.1205 8.54242 16.424 10.2596 16.1306 11.9267C15.8372 13.5938 14.9657 15.1041 13.6692 16.1924C12.3727 17.2806 10.7341 17.8772 9.04139 17.8772C7.34868 17.8772 5.71011 17.2806 4.41359 16.1924C3.11708 15.1041 2.24555 13.5938 1.95215 11.9267C1.65875 10.2596 1.96225 8.54242 2.80931 7.07689C3.65637 5.61137 4.99281 4.49124 6.58381 3.91333C6.70885 3.86783 6.81069 3.77453 6.86694 3.65395C6.92319 3.53337 6.92923 3.39538 6.88374 3.27034C6.83824 3.14531 6.74494 3.04346 6.62436 2.98722C6.50378 2.93097 6.36579 2.92493 6.24075 2.97042C4.42814 3.62899 2.90559 4.90528 1.94061 6.57503C0.975631 8.24479 0.629947 10.2012 0.964297 12.1005C1.29865 13.9999 2.29164 15.7206 3.76881 16.9605C5.24599 18.2003 7.11284 18.88 9.04139 18.88C10.9699 18.88 12.8368 18.2003 14.314 16.9605C15.7911 15.7206 16.7841 13.9999 17.1185 12.1005C17.4528 10.2012 17.1071 8.24479 16.1422 6.57503C15.1772 4.90528 13.6546 3.62899 11.842 2.97042Z" fill="#C4C5D7"/>
<path d="M9.14165 0.880005H8.94103C8.71944 0.880005 8.53979 1.05964 8.53979 1.28124V7.09918C8.53979 7.32077 8.71944 7.50041 8.94103 7.50041H9.14165C9.36325 7.50041 9.54289 7.32077 9.54289 7.09918V1.28124C9.54289 1.05964 9.36325 0.880005 9.14165 0.880005Z" fill="#C4C5D7"/>
</svg>
